<?xml version="1.0" encoding="UTF-8"?>
<svg width="45px" height="50px" viewBox="0 0 45 50" version="1.1" xmlns="http://www.w3.org/2000/svg" xmlns:xlink="http://www.w3.org/1999/xlink">
    <title>Logo</title>
    <g id="Website" stroke="none" stroke-width="1" fill="none" fill-rule="evenodd" opacity="0.600000024">
        <g id="Home-Copy-2" transform="translate(-698.000000, -1146.000000)" fill="#A1887C">
            <g id="3" transform="translate(117.000000, 1146.000000)">
                <g id="Logo" transform="translate(581.000000, 0.000000)">
                    <path d="M25.1597604,49.3273543 C11.4877357,49.3273543 0.364530595,38.2632584 0.364530595,24.6639956 C0.364530595,11.0642551 11.4877357,0 25.1597604,0 C32.7221331,0 39.9275494,3.48605366 44.6116299,9.36778081 C44.9149281,9.7487804 44.8235315,10.3041767 44.4242882,10.5874532 L39.1945999,14.2997161 C38.8199165,14.5656156 38.2915483,14.5080705 38.0032054,14.1536938 C34.8377175,10.2651233 30.2012847,8.05118151 25.1597604,8.05118151 C16.0165069,8.05118151 8.57789839,15.5036138 8.57789839,24.6639956 C8.57789839,33.8237404 16.0165069,41.276332 25.1597604,41.276332 C29.8804321,41.276332 34.3199186,39.2895647 37.4668773,35.7975993 C37.7768358,35.4537522 38.3003306,35.3947641 38.6660693,35.6813946 L43.7232087,39.6447377 C44.1078216,39.9461874 44.1722115,40.5039723 43.8515213,40.8701428 C39.1332864,46.2560987 32.3710248,49.3273543 25.1597604,49.3273543" id="Fill-7"></path>
                    <path d="M33.5622462,31.2573992 C32.8697842,31.4547554 30.2537314,32.9198152 29.4828195,33.3748074 C28.9961759,33.661871 28.3728085,33.4805697 28.1354811,33.2492171 C27.9222747,33.0413181 27.6675482,32.5853826 27.8361089,32.1187471 C28.0524303,31.5194371 27.8669622,31.2701528 27.6488374,31.1318089 C27.2022385,30.848371 26.6571673,30.7010564 26.7132996,29.2835228 C26.9939609,26.5022801 31.3540592,27.6329073 31.3540592,27.6329073 C31.3540592,27.6329073 30.137696,26.7715594 29.5576625,26.2868253 C28.9774651,25.8025725 29.1458619,25.1206394 29.2021582,24.7797514 C29.2581265,24.4388634 30.1002745,22.9675054 30.2873821,22.464987 C30.4746536,21.9626258 30.6430504,21.478206 30.7177295,20.6706825 C30.8114472,19.4325637 31.1520117,19.2082953 31.597299,19.1813831 C33.3751386,19.0737342 34.6102125,22.9314653 34.9470062,24.4029805 C35.2837998,25.8741812 35.3960643,28.2608589 35.2276675,28.8170445 C35.0592707,29.3733874 33.9364613,30.9523942 33.5622462,31.2573992 M25.7109624,14.0134529 C19.5767954,14.0134529 14.6040069,18.7817874 14.6040069,24.6637606 C14.6040069,30.5455669 19.5767954,35.3139013 25.7109624,35.3139013 C31.8449655,35.3139013 36.81759,30.5455669 36.81759,24.6637606 C36.81759,18.7817874 31.8449655,14.0134529 25.7109624,14.0134529" id="Fill-8"></path>
                </g>
            </g>
        </g>
    </g>
</svg>