<?xml version="1.0" encoding="UTF-8"?>
<svg width="195px" height="48px" viewBox="0 0 195 48" version="1.1" xmlns="http://www.w3.org/2000/svg" xmlns:xlink="http://www.w3.org/1999/xlink">
    <title>Group 9</title>
    <defs>
        <filter id="filter-1">
            <feColorMatrix in="SourceGraphic" type="matrix" values="0 0 0 0 0.739442 0 0 0 0 0.685349 0 0 0 0 0.660383 0 0 0 1.000000 0"></feColorMatrix>
        </filter>
    </defs>
    <g id="Website" stroke="none" stroke-width="1" fill="none" fill-rule="evenodd">
        <g id="Group-9">
            <path d="M64.04,34.3 C65.76,34.3 67.335,34 68.765,33.4 C70.195,32.8 71.4,31.93 72.38,30.79 L72.38,30.79 L69.86,28.39 C68.34,30.05 66.47,30.88 64.25,30.88 C62.81,30.88 61.52,30.565 60.38,29.935 C59.24,29.305 58.35,28.43 57.71,27.31 C57.07,26.19 56.75,24.92 56.75,23.5 C56.75,22.08 57.07,20.81 57.71,19.69 C58.35,18.57 59.24,17.695 60.38,17.065 C61.52,16.435 62.81,16.12 64.25,16.12 C66.47,16.12 68.34,16.94 69.86,18.58 L69.86,18.58 L72.38,16.21 C71.4,15.07 70.2,14.2 68.78,13.6 C67.36,13 65.79,12.7 64.07,12.7 C61.95,12.7 60.035,13.165 58.325,14.095 C56.615,15.025 55.27,16.31 54.29,17.95 C53.31,19.59 52.82,21.44 52.82,23.5 C52.82,25.56 53.305,27.41 54.275,29.05 C55.245,30.69 56.585,31.975 58.295,32.905 C60.005,33.835 61.92,34.3 64.04,34.3 Z M90.49,34.3 C92.63,34.3 94.56,33.835 96.28,32.905 C98,31.975 99.35,30.69 100.33,29.05 C101.31,27.41 101.8,25.56 101.8,23.5 C101.8,21.44 101.31,19.59 100.33,17.95 C99.35,16.31 98,15.025 96.28,14.095 C94.56,13.165 92.63,12.7 90.49,12.7 C88.35,12.7 86.42,13.165 84.7,14.095 C82.98,15.025 81.63,16.315 80.65,17.965 C79.67,19.615 79.18,21.46 79.18,23.5 C79.18,25.54 79.67,27.385 80.65,29.035 C81.63,30.685 82.98,31.975 84.7,32.905 C86.42,33.835 88.35,34.3 90.49,34.3 Z M90.49,30.88 C89.09,30.88 87.83,30.565 86.71,29.935 C85.59,29.305 84.71,28.425 84.07,27.295 C83.43,26.165 83.11,24.9 83.11,23.5 C83.11,22.1 83.43,20.835 84.07,19.705 C84.71,18.575 85.59,17.695 86.71,17.065 C87.83,16.435 89.09,16.12 90.49,16.12 C91.89,16.12 93.15,16.435 94.27,17.065 C95.39,17.695 96.27,18.575 96.91,19.705 C97.55,20.835 97.87,22.1 97.87,23.5 C97.87,24.9 97.55,26.165 96.91,27.295 C96.27,28.425 95.39,29.305 94.27,29.935 C93.15,30.565 91.89,30.88 90.49,30.88 Z M120.66,34.3 C122.38,34.3 123.955,34 125.385,33.4 C126.815,32.8 128.02,31.93 129,30.79 L129,30.79 L126.48,28.39 C124.96,30.05 123.09,30.88 120.87,30.88 C119.43,30.88 118.14,30.565 117,29.935 C115.86,29.305 114.97,28.43 114.33,27.31 C113.69,26.19 113.37,24.92 113.37,23.5 C113.37,22.08 113.69,20.81 114.33,19.69 C114.97,18.57 115.86,17.695 117,17.065 C118.14,16.435 119.43,16.12 120.87,16.12 C123.09,16.12 124.96,16.94 126.48,18.58 L126.48,18.58 L129,16.21 C128.02,15.07 126.82,14.2 125.4,13.6 C123.98,13 122.41,12.7 120.69,12.7 C118.57,12.7 116.655,13.165 114.945,14.095 C113.235,15.025 111.89,16.31 110.91,17.95 C109.93,19.59 109.44,21.44 109.44,23.5 C109.44,25.56 109.925,27.41 110.895,29.05 C111.865,30.69 113.205,31.975 114.915,32.905 C116.625,33.835 118.54,34.3 120.66,34.3 Z M147.11,34.3 C149.25,34.3 151.18,33.835 152.9,32.905 C154.62,31.975 155.97,30.69 156.95,29.05 C157.93,27.41 158.42,25.56 158.42,23.5 C158.42,21.44 157.93,19.59 156.95,17.95 C155.97,16.31 154.62,15.025 152.9,14.095 C151.18,13.165 149.25,12.7 147.11,12.7 C144.97,12.7 143.04,13.165 141.32,14.095 C139.6,15.025 138.25,16.315 137.27,17.965 C136.29,19.615 135.8,21.46 135.8,23.5 C135.8,25.54 136.29,27.385 137.27,29.035 C138.25,30.685 139.6,31.975 141.32,32.905 C143.04,33.835 144.97,34.3 147.11,34.3 Z M147.11,30.88 C145.71,30.88 144.45,30.565 143.33,29.935 C142.21,29.305 141.33,28.425 140.69,27.295 C140.05,26.165 139.73,24.9 139.73,23.5 C139.73,22.1 140.05,20.835 140.69,19.705 C141.33,18.575 142.21,17.695 143.33,17.065 C144.45,16.435 145.71,16.12 147.11,16.12 C148.51,16.12 149.77,16.435 150.89,17.065 C152.01,17.695 152.89,18.575 153.53,19.705 C154.17,20.835 154.49,22.1 154.49,23.5 C154.49,24.9 154.17,26.165 153.53,27.295 C152.89,28.425 152.01,29.305 150.89,29.935 C149.77,30.565 148.51,30.88 147.11,30.88 Z M171.43,34 L171.43,19.78 L183.01,34 L186.22,34 L186.22,13 L182.35,13 L182.35,27.22 L170.77,13 L167.56,13 L167.56,34 L171.43,34 Z" id="COCON" fill="#BDAFA8" fill-rule="nonzero"></path>
            <g filter="url(#filter-1)" id="Group">
                <g>
                    <path d="M23.3285329,47.592468 C10.4652311,47.592468 0,36.9174984 0,23.79651 C0,10.6751183 10.4652311,0 23.3285329,0 C30.4436076,0 37.2227954,3.3634158 41.6298141,9.03828606 C41.9151867,9.40588219 41.8291977,9.9417499 41.453539,10.2150832 L36.5332125,13.7967817 C36.1806624,14.0533167 35.6835879,13.9977861 35.4123,13.6558675 C32.4340544,9.90407358 28.0718683,7.76799401 23.3285329,7.76799401 C14.7261497,7.76799401 7.72753013,14.9583164 7.72753013,23.79651 C7.72753013,32.6341276 14.7261497,39.8246036 23.3285329,39.8246036 C27.7699759,39.8246036 31.9468631,37.9077042 34.9076818,34.5385626 C35.199309,34.2068046 35.6918478,34.1498917 36.0359469,34.4264407 L40.7939401,38.250386 C41.1558004,38.5412376 41.216389,39.0794091 40.9146875,39.4327026 C36.4755363,44.6292227 30.1132591,47.592468 23.3285329,47.592468" id="Fill-7" fill="#A1887C"></path>
                    <path d="M31.0929868,30.2891282 C30.4447366,30.4823722 27.9958553,31.9167246 27.2742029,32.36221 C26.8186395,32.6432673 26.2351136,32.4657608 26.0129413,32.2392532 C25.8133507,32.0357002 25.5749254,31.5893301 25.7327089,31.1324491 C25.9351762,30.545697 25.7615712,30.3016297 25.5573779,30.166181 C25.1393545,29.8886481 24.629087,29.7444484 24.6816336,28.3565918 C24.9443665,25.6335773 29.0258833,26.7405352 29.0258833,26.7405352 C29.0258833,26.7405352 27.8872143,25.8972143 27.3442491,25.4225908 C26.8011399,24.9484962 26.9587797,24.2808211 27.0114701,23.9470797 C27.0638728,23.6133383 27.8522153,22.1727832 28.0273545,21.6807538 C28.2026376,21.1889168 28.3602773,20.7146299 28.4301796,19.9240075 C28.5179171,18.7118448 28.8367444,18.4922515 29.2535691,18.4659022 C30.9177996,18.3605052 32.0739681,22.1374905 32.3892475,23.5781899 C32.704527,25.0186007 32.8096201,27.3553195 32.6519804,27.8998551 C32.4943407,28.4445349 31.4432654,29.9904871 31.0929868,30.2891282 M23.6130481,13.346424 C17.862002,13.346424 13.19976,18.0085836 13.19976,23.7596352 C13.19976,29.5105428 17.862002,34.172712 23.6130481,34.172712 C29.3639981,34.172712 34.026048,29.5105428 34.026048,23.7596352 C34.026048,18.0085836 29.3639981,13.346424 23.6130481,13.346424" id="Fill-8" fill="#A1887C"></path>
                </g>
            </g>
        </g>
    </g>
</svg>