<?xml version="1.0" encoding="UTF-8"?>
<svg width="45px" height="50px" viewBox="0 0 45 50" version="1.1" xmlns="http://www.w3.org/2000/svg" xmlns:xlink="http://www.w3.org/1999/xlink">
    <title>Logo</title>
    <defs>
        <filter id="filter-1">
            <feColorMatrix in="SourceGraphic" type="matrix" values="0 0 0 0 0.739442 0 0 0 0 0.685349 0 0 0 0 0.660383 0 0 0 1.000000 0"></feColorMatrix>
        </filter>
    </defs>
    <g filter="url(#filter-1)" id="Group">
                <g>
                    <path d="M23.3285329,47.592468 C10.4652311,47.592468 0,36.9174984 0,23.79651 C0,10.6751183 10.4652311,0 23.3285329,0 C30.4436076,0 37.2227954,3.3634158 41.6298141,9.03828606 C41.9151867,9.40588219 41.8291977,9.9417499 41.453539,10.2150832 L36.5332125,13.7967817 C36.1806624,14.0533167 35.6835879,13.9977861 35.4123,13.6558675 C32.4340544,9.90407358 28.0718683,7.76799401 23.3285329,7.76799401 C14.7261497,7.76799401 7.72753013,14.9583164 7.72753013,23.79651 C7.72753013,32.6341276 14.7261497,39.8246036 23.3285329,39.8246036 C27.7699759,39.8246036 31.9468631,37.9077042 34.9076818,34.5385626 C35.199309,34.2068046 35.6918478,34.1498917 36.0359469,34.4264407 L40.7939401,38.250386 C41.1558004,38.5412376 41.216389,39.0794091 40.9146875,39.4327026 C36.4755363,44.6292227 30.1132591,47.592468 23.3285329,47.592468" id="Fill-7" fill="#A1887C"></path>
                    <path d="M31.0929868,30.2891282 C30.4447366,30.4823722 27.9958553,31.9167246 27.2742029,32.36221 C26.8186395,32.6432673 26.2351136,32.4657608 26.0129413,32.2392532 C25.8133507,32.0357002 25.5749254,31.5893301 25.7327089,31.1324491 C25.9351762,30.545697 25.7615712,30.3016297 25.5573779,30.166181 C25.1393545,29.8886481 24.629087,29.7444484 24.6816336,28.3565918 C24.9443665,25.6335773 29.0258833,26.7405352 29.0258833,26.7405352 C29.0258833,26.7405352 27.8872143,25.8972143 27.3442491,25.4225908 C26.8011399,24.9484962 26.9587797,24.2808211 27.0114701,23.9470797 C27.0638728,23.6133383 27.8522153,22.1727832 28.0273545,21.6807538 C28.2026376,21.1889168 28.3602773,20.7146299 28.4301796,19.9240075 C28.5179171,18.7118448 28.8367444,18.4922515 29.2535691,18.4659022 C30.9177996,18.3605052 32.0739681,22.1374905 32.3892475,23.5781899 C32.704527,25.0186007 32.8096201,27.3553195 32.6519804,27.8998551 C32.4943407,28.4445349 31.4432654,29.9904871 31.0929868,30.2891282 M23.6130481,13.346424 C17.862002,13.346424 13.19976,18.0085836 13.19976,23.7596352 C13.19976,29.5105428 17.862002,34.172712 23.6130481,34.172712 C29.3639981,34.172712 34.026048,29.5105428 34.026048,23.7596352 C34.026048,18.0085836 29.3639981,13.346424 23.6130481,13.346424" id="Fill-8" fill="#A1887C"></path>
                </g>
            </g>
    <!-- <g id="Website" stroke="none" stroke-width="1" fill="none" fill-rule="evenodd" opacity="0.600000024">
        <g id="Home-Copy-2" transform="translate(-698.000000, -1146.000000)" fill="#A1887C">
            <g id="3" transform="translate(117.000000, 1146.000000)">
                <g id="Logo" transform="translate(581.000000, 0.000000)">
                    <path d="M25.1597604,49.3273543 C11.4877357,49.3273543 0.364530595,38.2632584 0.364530595,24.6639956 C0.364530595,11.0642551 11.4877357,0 25.1597604,0 C32.7221331,0 39.9275494,3.48605366 44.6116299,9.36778081 C44.9149281,9.7487804 44.8235315,10.3041767 44.4242882,10.5874532 L39.1945999,14.2997161 C38.8199165,14.5656156 38.2915483,14.5080705 38.0032054,14.1536938 C34.8377175,10.2651233 30.2012847,8.05118151 25.1597604,8.05118151 C16.0165069,8.05118151 8.57789839,15.5036138 8.57789839,24.6639956 C8.57789839,33.8237404 16.0165069,41.276332 25.1597604,41.276332 C29.8804321,41.276332 34.3199186,39.2895647 37.4668773,35.7975993 C37.7768358,35.4537522 38.3003306,35.3947641 38.6660693,35.6813946 L43.7232087,39.6447377 C44.1078216,39.9461874 44.1722115,40.5039723 43.8515213,40.8701428 C39.1332864,46.2560987 32.3710248,49.3273543 25.1597604,49.3273543" id="Fill-7"></path>
                    <path d="M33.5622462,31.2573992 C32.8697842,31.4547554 30.2537314,32.9198152 29.4828195,33.3748074 C28.9961759,33.661871 28.3728085,33.4805697 28.1354811,33.2492171 C27.9222747,33.0413181 27.6675482,32.5853826 27.8361089,32.1187471 C28.0524303,31.5194371 27.8669622,31.2701528 27.6488374,31.1318089 C27.2022385,30.848371 26.6571673,30.7010564 26.7132996,29.2835228 C26.9939609,26.5022801 31.3540592,27.6329073 31.3540592,27.6329073 C31.3540592,27.6329073 30.137696,26.7715594 29.5576625,26.2868253 C28.9774651,25.8025725 29.1458619,25.1206394 29.2021582,24.7797514 C29.2581265,24.4388634 30.1002745,22.9675054 30.2873821,22.464987 C30.4746536,21.9626258 30.6430504,21.478206 30.7177295,20.6706825 C30.8114472,19.4325637 31.1520117,19.2082953 31.597299,19.1813831 C33.3751386,19.0737342 34.6102125,22.9314653 34.9470062,24.4029805 C35.2837998,25.8741812 35.3960643,28.2608589 35.2276675,28.8170445 C35.0592707,29.3733874 33.9364613,30.9523942 33.5622462,31.2573992 M25.7109624,14.0134529 C19.5767954,14.0134529 14.6040069,18.7817874 14.6040069,24.6637606 C14.6040069,30.5455669 19.5767954,35.3139013 25.7109624,35.3139013 C31.8449655,35.3139013 36.81759,30.5455669 36.81759,24.6637606 C36.81759,18.7817874 31.8449655,14.0134529 25.7109624,14.0134529" id="Fill-8"></path>
                </g>
            </g>
        </g>
    </g> -->
</svg>