<svg width="10" height="10" viewBox="0 0 10 10" fill="none" xmlns="http://www.w3.org/2000/svg">
<path fill-rule="evenodd" clip-rule="evenodd" d="M0.442 2.13216H7.39133C7.63517 2.13216 7.83333 2.33033 7.83333 2.57416V7.85666C7.83333 8.1005 7.63517 8.29883 7.39133 8.29883H1.569L0 9.86783V2.57416C0 2.33033 0.198167 2.13216 0.442 2.13216ZM1 5.29616C1 5.66383 1.299 5.96283 1.66667 5.96283C2.03433 5.96283 2.33333 5.66383 2.33333 5.29616C2.33333 4.9285 2.03433 4.6295 1.66667 4.6295C1.299 4.6295 1 4.9285 1 5.29616ZM3.83333 5.96283C3.46567 5.96283 3.16667 5.66383 3.16667 5.29616C3.16667 4.9285 3.46567 4.6295 3.83333 4.6295C4.201 4.6295 4.5 4.9285 4.5 5.29616C4.5 5.66383 4.201 5.96283 3.83333 5.96283ZM5.33333 5.29616C5.33333 5.66383 5.63233 5.96283 6 5.96283C6.36767 5.96283 6.66667 5.66383 6.66667 5.29616C6.66667 4.9285 6.36767 4.6295 6 4.6295C5.63233 4.6295 5.33333 4.9285 5.33333 5.29616Z" fill="black"/>
<path d="M9.55802 0.132164H2.10869C1.86485 0.132164 1.66669 0.330331 1.66669 0.574164V1.79883H7.39135C7.81885 1.79883 8.16669 2.14666 8.16669 2.57416V6.79616H10V0.574164C10 0.330331 9.80185 0.132164 9.55802 0.132164Z" fill="black"/>
</svg>
