<?xml version="1.0" encoding="UTF-8"?>
<svg width="10px" height="11px" viewBox="0 0 10 11" version="1.1" xmlns="http://www.w3.org/2000/svg" xmlns:xlink="http://www.w3.org/1999/xlink">
    <!-- Generator: Sketch 64 (93537) - https://sketch.com -->
    <title>COMMUTE</title>
    <desc>Created with Sketch.</desc>
    <g id="Page-1" stroke="none" stroke-width="1" fill="none" fill-rule="evenodd">
        <g id="Calendar-with-Unfilled" transform="translate(-715.000000, -467.000000)" fill="#000000" fill-rule="nonzero">
            <g id="Booking-Card-Copy" transform="translate(625.000000, 413.000000)">
                <g id="Icons" transform="translate(11.000000, 54.000000)">
                    <g id="COMMUTE" transform="translate(79.000000, 0.500000)">
                        <circle id="XMLID_59_" cx="5.16196544" cy="0.772721382" r="1"></circle>
                        <path d="M7.95434125,5.52099352 C7.82172786,5.52099352 7.69209503,5.53388769 7.56647948,5.55820734 L7.16136069,4.35440605 L7.43993521,4.4936933 C7.57321814,4.56036717 7.73546436,4.50632829 7.80215983,4.37295896 C7.86883369,4.23958963 7.81477322,4.07742981 7.68140389,4.01073434 L6.92228942,3.6311879 C7.02531317,3.78421166 7.067473,3.97768898 7.02326134,4.17174946 C6.97760259,4.37211663 6.84922246,4.53209503 6.68241901,4.62412527 L6.75915767,4.85213823 L5.90738661,4.87725702 C5.91481641,4.9687473 5.90533477,5.06161987 5.87850972,5.15153348 L5.79822894,5.42066955 L6.28298056,5.40637149 L5.60431965,6.07066955 L5.32131749,7.01937365 C5.26326134,7.00038877 5.19846652,7.00082073 5.13730022,7.02531317 L4.95006479,7.10021598 C4.95086393,7.09773218 4.95185745,7.09537797 4.95259179,7.09285097 L5.5600432,5.05654428 C5.62211663,4.84850972 5.51352052,4.62775378 5.31084233,4.5499568 L4.93697624,4.40643629 C4.83049676,4.38218143 4.76902808,4.36816415 4.70451404,4.35345572 C4.50933045,4.30898488 4.37224622,4.14464363 4.35231102,3.95609071 L4.21215983,2.61019438 L4.67600432,3.83334773 C4.71710583,3.94174946 4.80974082,4.02235421 4.92276458,4.04812095 L6.2712959,4.35544276 C6.45788337,4.39790497 6.64330454,4.28110151 6.68574514,4.09483801 C6.72822894,3.90842333 6.61153348,3.72287257 6.42514039,3.68036717 L5.2575594,3.41429806 L4.85954644,2.36470842 L5.27706263,2.94809935 L5.39533477,2.63833693 C5.49701944,2.37200864 5.36356371,2.0736933 5.09723542,1.97200864 L4.23730022,1.64367171 C3.97097192,1.54198704 3.67265659,1.67544276 3.57097192,1.94177106 C2.89159827,3.72103672 2.91930886,3.63084233 2.8987473,3.74907127 C2.86140389,3.96386609 2.90535637,4.18025918 3.01339093,4.36025918 C2.5624406,4.36025918 2.69393089,4.36025918 2.64578834,4.36025918 C2.46686825,4.36025918 2.32181425,4.50531317 2.32181425,4.68423326 C2.32181425,4.86315335 2.46686825,5.00820734 2.64578834,5.00820734 L3.18084233,5.00820734 L3.23572354,5.14056156 L2.85725702,5.69414687 C2.60596112,5.58295896 2.32816415,5.52103672 2.03615551,5.52103672 C0.913412527,5.52099352 0,6.43442765 0,7.55714903 C0,8.67987041 0.913412527,9.59328294 2.03615551,9.59328294 C3.02522678,9.59328294 3.85170626,8.88436285 4.03451404,7.94799136 C4.07235421,7.96738661 4.11453564,7.97799136 4.15775378,7.97799136 C4.19112311,7.97799136 4.225054,7.97174946 4.25794816,7.95861771 L5.33786177,7.52665227 C5.4762851,7.4712743 5.54362851,7.31416847 5.48827214,7.17570194 C5.46593952,7.11984881 5.42686825,7.07583153 5.37930886,7.04650108 L6.97276458,5.48678186 L7.05488121,5.73077754 C6.38205184,6.06349892 5.91818575,6.75710583 5.91818575,7.55712743 C5.91818575,8.67984881 6.83159827,9.59328294 7.95436285,9.59328294 C9.07708423,9.59328294 9.99049676,8.67984881 9.99049676,7.55712743 C9.99049676,6.43442765 9.07708423,5.52099352 7.95434125,5.52099352 Z M3.01203024,6.42444924 C3.26542117,6.64306695 3.44481641,6.94488121 3.507473,7.28717063 L2.42220302,7.28717063 L3.01203024,6.42444924 Z M2.03615551,9.05334773 C1.21114471,9.05334773 0.539956803,8.38215983 0.539956803,7.55714903 C0.539956803,6.73213823 1.21114471,6.06095032 2.03615551,6.06095032 C2.21488121,6.06095032 2.38632829,6.0925486 2.54535637,6.15030238 L1.68768898,7.40479482 C1.63116631,7.4874514 1.625054,7.59460043 1.67179266,7.68315335 C1.71853132,7.77170626 1.81043197,7.82714903 1.91056156,7.82714903 L3.5074514,7.82714903 C3.3799568,8.52365011 2.76896328,9.05334773 2.03615551,9.05334773 Z M4.05738661,7.45727862 C4.03937365,7.46447084 4.02265659,7.47347732 4.00717063,7.48384449 C3.83328294,7.29650108 3.75894168,7.02514039 3.83794816,6.76032397 L3.8662851,6.66531317 C3.73531317,6.39762419 3.54732181,6.16276458 3.31820734,5.97656587 L3.48265659,5.73602592 L3.86701944,6.66289417 L4.06267819,6.00701944 L3.84345572,5.47835853 L4.2237365,5.46712743 L4.24742981,5.38768898 C4.05736501,5.31473002 3.45095032,5.08194384 3.2587257,5.00814255 C4.25682505,5.00814255 4.15079914,5.00857451 4.17529158,5.00725702 L4.65388769,5.18773218 L4.15643629,6.85531317 C4.09941685,7.04647948 4.18663067,7.2462419 4.35485961,7.33827214 L4.05738661,7.45727862 Z M7.95434125,9.05334773 C7.12933045,9.05334773 6.45812095,8.38215983 6.45812095,7.55717063 C6.45812095,6.99511879 6.76980562,6.50468683 7.22924406,6.24900648 L7.69846652,7.64328294 C7.73641469,7.75604752 7.84155508,7.82723542 7.95429806,7.82723542 C7.98285097,7.82723542 8.01190065,7.82267819 8.04045356,7.81306695 C8.18177106,7.76550756 8.25775378,7.61239741 8.21019438,7.47107991 L7.74086393,6.07645788 C7.81062635,6.06643629 7.88183585,6.06097192 7.95431965,6.06097192 C8.77930886,6.06097192 9.45049676,6.73215983 9.45049676,7.55717063 C9.45053996,8.38215983 8.77933045,9.05334773 7.95434125,9.05334773 Z" id="XMLID_53_"></path>
                    </g>
                </g>
            </g>
        </g>
    </g>
</svg>